<svg xmlns="http://www.w3.org/2000/svg" width="186.746" height="186.746" viewBox="0 0 49.41 49.41">
    <g transform="translate(5.914 -253.862)">
        <circle cx="18.791" cy="278.567" r="24.705" fill="#11111b"/>
        <path fill="#cdd6f4" d="M18.589 267.836c-.745 0-1.356.176-1.853.528s-.735.869-.735 1.552c0 .414.083.756.249 1.035.166.29.383.507.652.652.27.145.559.27.89.373.32.103.642.197.973.28.32.082.61.186.88.29.269.113.486.268.652.475a1.2 1.2 0 0 1 .259.766c0 .394-.145.715-.425.963s-.724.373-1.335.373c-.538 0-1.014-.145-1.428-.456-.425-.31-.704-.683-.828-1.128-.02-.041-.031-.124-.042-.228s-.031-.176-.072-.207a.515.515 0 0 0-.228-.041h-.28c-.103 0-.165.01-.196.03-.031.021-.042.063-.042.125v.093c0 .042.01.083.01.104v1.925c0 .041-.01.083-.01.124v.103c0 .073.01.125.052.146.031.03.104.04.218.04h.28c.061 0 .123.001.165-.01a.248.248 0 0 0 .114-.061c.02-.031.041-.063.062-.084.01-.02.03-.051.052-.103a.688.688 0 0 1 .062-.124c.072-.135.123-.207.155-.207.02 0 .083.042.196.114.487.393 1.108.58 1.863.58.89 0 1.615-.208 2.174-.622.548-.414.828-.983.828-1.707 0-.435-.093-.808-.259-1.119a1.822 1.822 0 0 0-.652-.714c-.269-.165-.569-.3-.9-.414a11.872 11.872 0 0 0-.983-.3 7.566 7.566 0 0 1-.89-.279 1.68 1.68 0 0 1-.663-.435 1.026 1.026 0 0 1-.248-.704c0-.31.124-.548.372-.724.249-.176.621-.27 1.118-.27.424 0 .818.125 1.19.363.362.238.61.559.745.973 0 .03.011.103.021.217.01.114.031.197.062.26.021.061.073.092.145.092h.383c.104 0 .166-.02.197-.072a.41.41 0 0 0 .052-.228v-2.008a.349.349 0 0 0-.042-.186c-.02-.02-.083-.042-.176-.042h-.207c-.165 0-.269.01-.31.031-.052.021-.104.073-.156.155l-.103.166c-.083.125-.134.176-.165.176-.021 0-.094-.041-.218-.145-.455-.32-.994-.486-1.625-.486zm8.559.083c-.145 0-.207.062-.207.186v.373c0 .124.01.186.031.207.02.02.083.03.207.03h.538c.166 0 .27.021.311.052.031.031.052.114.052.249V274.605c0 .062.01.104.01.124 0 .135-.073.197-.207.197h-.735c-.104 0-.155.02-.176.042-.02.02-.031.092-.031.217v.207c0 .145.01.238.031.269.021.031.093.041.217.041h3.375c.124 0 .196-.01.217-.041.02-.02.041-.104.041-.249v-.33c0-.115-.072-.176-.196-.176-.031 0-.073.01-.135.01-.062.01-.114.01-.145.01h-.538c-.155 0-.248-.01-.28-.03-.04-.022-.051-.094-.051-.218v-2.081c0-.145.062-.217.207-.217.02 0 .062.01.124.01h1.015c.951 0 1.666-.207 2.162-.631.487-.425.736-.994.736-1.698 0-.683-.249-1.2-.725-1.573-.476-.362-1.2-.549-2.174-.549h-3.394c-.042 0-.084 0-.146-.01-.062 0-.113-.01-.134-.01zm-23.473.01c-.083 0-.145.02-.166.062-.031.042-.041.114-.041.228v.342c0 .082.01.124.03.134.021.02.084.02.187.02h.776c.063 0 .093.021.114.042.02.02.031.083.031.166v5.547c0 .228-.02.363-.062.405-.041.04-.165.051-.383.051h-.496c-.094 0-.146.02-.166.042-.021.03-.031.103-.031.227v.238c0 .114.01.187.051.228.031.041.094.052.177.052h.134c.062 0 .124-.01.165-.01H7.92c.88 0 1.583-.177 2.11-.529.518-.352.788-.9.788-1.645 0-.528-.187-.942-.539-1.253-.362-.31-.859-.507-1.49-.6 1.138-.228 1.718-.838 1.718-1.822 0-.641-.259-1.118-.776-1.438-.518-.311-1.19-.476-2.019-.476H3.778c-.051 0-.082-.01-.103-.01zm2.629.787H7.71c.89 0 1.346.435 1.346 1.294 0 .87-.455 1.293-1.346 1.293H6.293c-.124 0-.207-.02-.238-.072-.041-.042-.051-.156-.051-.342v-1.842c0-.155.01-.249.04-.28.022-.03.115-.051.26-.051zm23.504 0h1.014c.89 0 1.346.455 1.346 1.345 0 .476-.124.86-.352 1.139-.228.28-.56.414-.994.414h-1.014c-.165 0-.259-.02-.29-.062-.03-.042-.041-.156-.041-.363v-2.225c0-.114.01-.186.052-.207.03-.02.124-.041.28-.041zM6.273 272.08h1.542c.424 0 .776.114 1.045.341.27.228.404.58.404 1.056 0 .487-.145.849-.414 1.087-.27.248-.621.362-1.035.362h-1.46c-.155 0-.248-.01-.29-.041-.04-.031-.061-.104-.061-.207v-2.215c0-.166.01-.28.051-.321.031-.042.104-.062.218-.062z"/>
        <path fill="#a6adc8" d="M13.822 281.795c-.028 0-.063.007-.111.007-.055.007-.09.007-.117.007H11.82c-.042 0-.062-.007-.076-.007-.07 0-.11.014-.132.041-.027.028-.034.097-.034.194v.206c0 .028-.007.056-.007.09v.076c0 .048.007.083.028.097.02.02.062.027.13.027h.229c.11 0 .179.035.206.104l.056.145c.02.062.034.11.034.138s-.02.096-.062.193l-.6 1.408c-.028.076-.076.186-.138.33-.069.152-.104.242-.117.27-.076.165-.125.248-.138.248-.028 0-.062-.048-.09-.145a7.834 7.834 0 0 1-.145-.407c-.055-.165-.09-.29-.11-.358l-.545-1.553c-.014-.028-.028-.07-.042-.11-.02-.042-.034-.077-.048-.104a.136.136 0 0 1-.014-.069c0-.055.076-.09.242-.09h.276c.076 0 .124-.007.138-.027a.403.403 0 0 0 .027-.18v-.33c0-.077-.013-.125-.034-.153a.146.146 0 0 0-.11-.041c-.014 0-.042.007-.083.007H8.454c-.049 0-.083-.007-.097-.007-.11 0-.159.062-.159.173v.365c0 .097.007.152.034.166.021.02.09.027.208.027h.207c.055 0 .103.007.138.014.034.007.062.02.09.042.02.027.034.041.04.055.007.014.021.048.035.096s.02.083.035.104l1.435 3.954.028.09c.013.04.02.062.027.075 0 .014.014.028.035.048.013.021.04.035.068.035.028.007.07.007.118.007h.31c.042 0 .083 0 .118-.007.027 0 .055-.007.082-.007s.049-.014.07-.027a.146.146 0 0 1 .04-.028c.015-.007.022-.02.035-.048.014-.021.021-.035.028-.049l.028-.069c.014-.034.02-.062.034-.082l.732-1.74c.027-.068.138-.358.345-.869.069-.166.11-.255.138-.255.027 0 .075.11.13.318.063.234.16.53.297.89l.635 1.676.035.104c.014.055.027.09.034.096l.049.048c.02.028.048.042.089.042a.832.832 0 0 0 .145.007h.249c.062 0 .117 0 .158-.014a.326.326 0 0 0 .097-.027c.028-.007.048-.028.069-.055.014-.028.027-.056.041-.076a.55.55 0 0 0 .035-.104c.014-.055.02-.096.034-.124l1.332-3.85c.028-.097.048-.159.055-.173s.035-.034.076-.062a.521.521 0 0 1 .214-.034h.29c.076 0 .124-.007.145-.021.014-.014.027-.048.027-.103v-.387c0-.103-.014-.166-.034-.186a.476.476 0 0 0-.2-.028h-1.725c-.125 0-.194.014-.214.041-.028.028-.035.111-.035.25v.213c0 .103.014.165.041.186.028.028.104.035.235.035.159 0 .263.007.318.02.048.014.075.035.075.076 0 .021-.027.104-.075.256l-.477 1.366c-.082.235-.186.524-.296.87-.083.24-.138.358-.152.358-.02 0-.069-.152-.152-.462-.04-.152-.11-.38-.207-.683l-.518-1.573a.53.53 0 0 1-.034-.16c0-.04.049-.068.159-.068h.159c.103 0 .165-.007.193-.028.027-.013.041-.062.041-.145v-.386c0-.069-.014-.11-.041-.138s-.076-.042-.131-.042zm7.561.007c-.062 0-.103.014-.13.041-.028.028-.035.09-.035.173v.338c0 .083.007.138.034.152.02.02.083.028.193.028h.318c.083 0 .145.013.172.027.028.02.042.055.042.097 0 .027-.007.09-.014.2l-.145 3.036v.173c0 .069-.014.124-.041.151-.028.028-.083.042-.166.042h-.345c-.124 0-.2.014-.22.034-.028.02-.035.083-.035.193v.318c0 .076.007.124.034.152.021.027.056.034.111.034h.076c.04 0 .076-.007.103-.007h1.863c.083 0 .131-.007.159-.027.02-.014.035-.056.035-.11v-.442c0-.062-.007-.104-.021-.117-.014-.014-.041-.028-.083-.028h-.42c-.111 0-.187-.007-.222-.034-.041-.028-.055-.07-.055-.132 0-.02 0-.062.007-.117.007-.055.014-.096.014-.124l.055-1.504s0-.138.007-.414c0-.276.007-.518.02-.725.007-.207.021-.31.042-.31.027 0 .09.138.172.414.076.248.194.62.352 1.104l.8 2.442c.028.097.063.152.097.166.028.02.097.028.208.028h.517a.25.25 0 0 0 .145-.035.245.245 0 0 0 .069-.083.59.59 0 0 0 .041-.131c.014-.055.021-.096.035-.124l.842-2.498a14.6 14.6 0 0 0 .214-.76c.069-.275.117-.42.144-.42.014 0 .028.09.042.255l.02.622.007.358.056 1.615c0 .042 0 .083.006.138 0 .055.007.09.007.103 0 .063-.02.104-.055.132-.035.027-.096.034-.193.034h-.331c-.104 0-.166.014-.193.034-.028.021-.035.063-.035.132v.407c0 .069.007.11.027.13s.056.029.104.029h.076c.035 0 .062-.007.09-.007h2.332c.11 0 .173-.007.2-.028.021-.014.034-.069.034-.159v-.4c0-.055-.013-.09-.034-.11a.357.357 0 0 0-.158-.028h-.36c-.11 0-.179-.014-.206-.048-.035-.035-.049-.097-.049-.18v-.22l-.117-2.954c0-.027-.007-.055-.007-.096v-.083c0-.062.014-.104.042-.117a.596.596 0 0 1 .213-.028h.194c.13 0 .207-.007.234-.034.028-.021.042-.09.042-.214v-.256c0-.09-.014-.151-.042-.179a.172.172 0 0 0-.124-.049c-.02 0-.055.007-.097.007h-1.78a.61.61 0 0 0-.18.021.212.212 0 0 0-.11.076c-.027.035-.04.07-.055.097a.663.663 0 0 0-.048.13.99.99 0 0 1-.042.146l-.572 1.56a10.2 10.2 0 0 0-.338 1.02c-.07.256-.125.38-.166.38-.041 0-.09-.132-.152-.408a17.66 17.66 0 0 0-.303-1.048l-.566-1.808a.34.34 0 0 0-.083-.138.399.399 0 0 0-.166-.028h-2.063c-.048 0-.076-.007-.09-.007z"/>
        <path fill="#cdd6f4" d="M12.861 259.776a.358.358 0 0 0-.358.358v18.075H.358a.357.357 0 1 0 0 .716h18.075V297a.357.357 0 1 0 .716 0v-18.075h18.075a.357.357 0 1 0 0-.716h-12.3v-18.075a.357.357 0 1 0-.715 0v18.075H13.22v-18.075a.357.357 0 0 0-.358-.358z"/>
    </g>
</svg>
